<?xml version="1.0" encoding="utf-8"?>
<!-- Generator: Adobe Illustrator 23.0.3, SVG Export Plug-In . SVG Version: 6.00 Build 0)  -->
<svg version="1.1" xmlns="http://www.w3.org/2000/svg" xmlns:xlink="http://www.w3.org/1999/xlink" x="0px" y="0px"
	 viewBox="0 0 1920 1080" style="enable-background:new 0 0 1920 1080;" xml:space="preserve">
<style type="text/css">
	.st0{display:none;}
	.st1{display:inline;fill:#FFFFFF;}
	.st2{fill:url(#SVGID_1_);}
	.st3{fill:url(#SVGID_2_);}
	.st4{fill:url(#SVGID_3_);}
	.st5{fill:none;stroke:#FD959C;stroke-width:2;stroke-miterlimit:10;}
	.st6{fill:#C0E6F9;}
	.st7{fill:#F6B9B8;}
	.st8{fill:url(#SVGID_4_);}
	.st9{fill:url(#SVGID_5_);}
	.st10{fill:#FFFFFF;}
	.st11{fill:none;stroke:#FFECE6;stroke-width:2;stroke-miterlimit:10;}
	.st12{fill:none;stroke:#B2E3E0;stroke-width:2;stroke-miterlimit:10;}
	.st13{fill:none;}
	.st14{fill:#FFFDFB;}
	.st15{opacity:0.51;fill:#FFFFFF;}
	.st16{fill:#FD959C;}
	.st17{fill:#FFECE6;}
	.st18{fill:url(#SVGID_6_);}
	.st19{fill:url(#SVGID_7_);}
	.st20{fill:url(#SVGID_8_);}
	.st21{fill:url(#SVGID_9_);}
	.st22{fill:url(#SVGID_10_);}
	.st23{fill:#51B6C4;}
	.st24{fill:url(#SVGID_11_);}
	.st25{fill:url(#SVGID_12_);}
	.st26{fill:url(#SVGID_13_);}
	.st27{fill:url(#SVGID_14_);}
	.st28{fill:url(#SVGID_15_);}
	.st29{fill:url(#SVGID_16_);}
	.st30{fill:url(#SVGID_17_);}
	.st31{fill:url(#SVGID_18_);}
	.st32{fill:#3E3B6F;}
	.st33{fill:url(#SVGID_19_);}
	.st34{fill:url(#SVGID_20_);}
	.st35{fill:url(#SVGID_21_);}
	.st36{fill:url(#SVGID_22_);}
	.st37{fill:url(#SVGID_23_);}
	.st38{fill:url(#SVGID_24_);}
	.st39{fill:url(#SVGID_25_);}
	.st40{fill:#DBFBFF;}
	.st41{fill:url(#SVGID_26_);}
	.st42{fill:url(#SVGID_27_);}
	.st43{fill:url(#SVGID_28_);}
	.st44{fill:url(#SVGID_29_);}
	.st45{fill:#77C3D1;}
	.st46{fill:none;stroke:#77C3D1;stroke-width:3;stroke-linecap:round;stroke-linejoin:round;stroke-miterlimit:10;}
	.st47{fill:none;stroke:#F6B9B8;stroke-width:3;stroke-linecap:round;stroke-linejoin:round;stroke-miterlimit:10;}
	.st48{fill:#EA6290;}
	.st49{fill:none;stroke:#FD959C;stroke-width:3;stroke-linecap:round;stroke-linejoin:round;stroke-miterlimit:10;}
	.st50{fill:none;stroke:#51B6C4;stroke-width:3;stroke-linecap:round;stroke-linejoin:round;stroke-miterlimit:10;}
</style>
<g id="white_back" class="st0">
	<rect x="-19" y="-21" class="st1" width="1953" height="1119"/>
</g>
<g id="back">
	
		<radialGradient id="SVGID_1_" cx="376.4404" cy="-184.5153" r="1149.2568" gradientTransform="matrix(0.9933 0 0 1.0012 0.999 -1.1319)" gradientUnits="userSpaceOnUse">
		<stop  offset="0" style="stop-color:#F6B9B8"/>
		<stop  offset="1" style="stop-color:#FFFFFF;stop-opacity:0"/>
	</radialGradient>
	<rect x="149" y="111" class="st2" width="1037" height="850"/>
	<radialGradient id="SVGID_2_" cx="2345.7578" cy="625.2105" r="1279.553" gradientUnits="userSpaceOnUse">
		<stop  offset="0.0293" style="stop-color:#C0E6F9"/>
		<stop  offset="1" style="stop-color:#FFFFFF;stop-opacity:0"/>
	</radialGradient>
	<rect x="859" y="202" class="st3" width="948" height="712"/>
	<radialGradient id="SVGID_3_" cx="1257.8684" cy="116.5737" r="1099.2152" gradientUnits="userSpaceOnUse">
		<stop  offset="0.0293" style="stop-color:#DBFBFF"/>
		<stop  offset="1" style="stop-color:#FFFFFF;stop-opacity:0"/>
	</radialGradient>
	<rect x="1005" y="312" class="st4" width="708" height="430"/>
	<rect x="1024" y="287.96" class="st5" width="726" height="440.93"/>
	<g>
		<rect x="1382" y="377" class="st6" width="279" height="25"/>
		<rect x="1382" y="417" class="st6" width="279" height="25"/>
		<rect x="1382" y="456" class="st6" width="279" height="25"/>
		<g>
			<rect x="1382" y="573" class="st6" width="279" height="25"/>
			<rect x="1382" y="613" class="st6" width="279" height="25"/>
			<rect x="1382" y="652" class="st6" width="279" height="25"/>
		</g>
	</g>
	<path class="st7" d="M1439.17,381.16c10.63-12.94,33.83-43.76,33.83-66.28c0-23.04-18.74-41.78-41.78-41.78
		c-23.04,0-41.78,18.74-41.78,41.78c0,22.52,23.2,53.34,33.83,66.28h0l0.09,0.11c0.19,0.23,0.37,0.45,0.55,0.67l7.06,9.23
		C1430.96,391.16,1436.31,384.65,1439.17,381.16L1439.17,381.16L1439.17,381.16z M1410.2,314.88c0-11.59,9.43-21.02,21.02-21.02
		c11.59,0,21.02,9.43,21.02,21.02c0,11.59-9.43,21.02-21.02,21.02C1419.63,335.9,1410.2,326.47,1410.2,314.88z"/>
	<linearGradient id="SVGID_4_" gradientUnits="userSpaceOnUse" x1="1414.8341" y1="290.8446" x2="1475.0868" y2="387.4762">
		<stop  offset="0" style="stop-color:#EA6290"/>
		<stop  offset="0.9282" style="stop-color:#FD959C;stop-opacity:0"/>
	</linearGradient>
	<path class="st8" d="M1468.56,296.18l-16.45,16.45c0.08,0.74,0.13,1.49,0.13,2.25c0,11.59-9.43,21.02-21.02,21.02
		c-0.76,0-1.51-0.05-2.25-0.13l-22.49,22.49c6.07,9.41,12.47,17.63,16.79,22.89h0l0.09,0.11c0.19,0.23,0.37,0.45,0.55,0.67
		l7.06,9.23c0,0,5.35-6.51,8.21-10l0,0h0c10.63-12.94,33.83-43.76,33.83-66.28C1473,308.16,1471.4,301.81,1468.56,296.18z"/>
	<polygon class="st7" points="1571,590 1571,524 1676,524 1676,580 1580.31,580 	"/>
	<linearGradient id="SVGID_5_" gradientUnits="userSpaceOnUse" x1="1605.0674" y1="490.8786" x2="1669.7411" y2="586.8786">
		<stop  offset="0" style="stop-color:#EA6290"/>
		<stop  offset="0.9282" style="stop-color:#FD959C;stop-opacity:0"/>
	</linearGradient>
	<polygon class="st9" points="1616.49,580 1676,580 1676,524 1672.49,524 	"/>
	<g>
		<circle class="st10" cx="1608" cy="551" r="4"/>
		<circle class="st10" cx="1623" cy="551" r="4"/>
		<circle class="st10" cx="1639" cy="551" r="4"/>
	</g>
	<g>
		<circle class="st5" cx="1738" cy="221" r="6"/>
		<circle class="st11" cx="1761" cy="221" r="6"/>
		<circle class="st12" cx="1782" cy="221" r="6"/>
	</g>
</g>
<g id="attention_icon">
	<g>
		<g>
			<g>
				<g>
					
						<rect x="243.01" y="407" transform="matrix(0.9948 -0.1016 0.1016 0.9948 -41.5087 28.2814)" class="st13" width="28.02" height="29.67"/>
					<path class="st14" d="M249.95,416.91c-0.76,0.08-0.76,1.28,0.01,1.2C250.73,418.03,250.72,416.83,249.95,416.91z"/>
					<path class="st14" d="M247.3,420.62c-0.76,0.08-0.76,1.28,0.01,1.2C248.07,421.74,248.07,420.54,247.3,420.62z"/>
					<path class="st14" d="M251.02,419.43c-0.76,0.08-0.76,1.28,0.01,1.2C251.79,420.55,251.79,419.35,251.02,419.43z"/>
					<path class="st14" d="M253.34,418.38c-0.76,0.08-0.76,1.28,0.01,1.2C254.11,419.51,254.11,418.3,253.34,418.38z"/>
					<path class="st14" d="M252.13,423.55c0.76-0.08,0.76-1.28-0.01-1.2C251.36,422.43,251.37,423.63,252.13,423.55z"/>
					<path class="st14" d="M247.71,426.64c-0.76,0.08-0.76,1.28,0.01,1.2C248.48,427.77,248.48,426.57,247.71,426.64z"/>
					<path class="st14" d="M255.18,426.49c-0.13,0.01-0.23,0.07-0.31,0.13c-0.25-0.5-1.12-0.5-1.13,0.16c0,0.53,0.55,0.74,0.91,0.58
						c0.07,0.2,0.25,0.35,0.54,0.32C255.95,427.61,255.95,426.41,255.18,426.49z"/>
					<path class="st14" d="M251.15,424.67c-0.76,0.08-0.76,1.28,0.01,1.2C251.92,425.8,251.92,424.6,251.15,424.67z"/>
					<path class="st14" d="M246.25,418.3c-0.76,0.08-0.76,1.28,0.01,1.2C247.02,419.42,247.02,418.22,246.25,418.3z"/>
					<path class="st14" d="M252.75,413.78c0.76-0.08,0.76-1.28-0.01-1.2C251.98,412.66,251.99,413.86,252.75,413.78z"/>
					<path class="st14" d="M256.77,419.44c0.76-0.08,0.76-1.28-0.01-1.2C256,418.31,256,419.52,256.77,419.44z"/>
					<path class="st14" d="M260.98,422.09c0.02-0.05,0.03-0.1,0.04-0.16c0.01-0.77-1.19-0.9-1.2-0.12c0,0.34,0.23,0.54,0.49,0.61
						c-0.19,0.37-0.03,0.91,0.5,0.86C261.5,423.2,261.55,422.21,260.98,422.09z"/>
					<path class="st14" d="M247.05,425.28c0.76-0.08,0.76-1.28-0.01-1.2C246.28,424.16,246.28,425.36,247.05,425.28z"/>
					<path class="st14" d="M246.68,414.61c-0.76,0.08-0.76,1.28,0.01,1.2C247.46,415.74,247.45,414.53,246.68,414.61z"/>
					<path class="st14" d="M257.89,416.49c0.76-0.08,0.76-1.28-0.01-1.2C257.11,415.37,257.12,416.57,257.89,416.49z"/>
					<path class="st14" d="M243.55,421.61c-0.76,0.08-0.76,1.28,0.01,1.2C244.33,422.73,244.32,421.53,243.55,421.61z"/>
					<path class="st14" d="M259.35,426.86c0.39-0.04,0.58-0.37,0.57-0.67c0.03-0.07,0.05-0.15,0.05-0.25
						c0.01-0.77-1.19-0.9-1.2-0.12c0,0.09,0.02,0.17,0.05,0.24C258.68,426.43,258.85,426.91,259.35,426.86z"/>
					<path class="st14" d="M247.62,429.69c-0.76,0.08-0.76,1.28,0.01,1.2C248.39,430.81,248.39,429.61,247.62,429.69z"/>
					<path class="st14" d="M256.57,430.19c-0.76,0.08-0.76,1.28,0.01,1.2C257.34,431.31,257.34,430.11,256.57,430.19z"/>
					<path class="st14" d="M261.84,411.38c0.58,0.51,1.45-0.32,0.87-0.83C262.13,410.05,261.26,410.87,261.84,411.38z"/>
					<path class="st14" d="M258.19,411.14c-0.58-0.51-1.45,0.32-0.87,0.82C257.89,412.47,258.77,411.65,258.19,411.14z"/>
					<path class="st14" d="M261.59,413.05c-0.58-0.51-1.45,0.32-0.87,0.83C261.3,414.38,262.18,413.56,261.59,413.05z"/>
					<path class="st14" d="M263.07,414.86c0.58,0.51,1.46-0.31,0.87-0.82C263.36,413.53,262.48,414.35,263.07,414.86z"/>
					<path class="st14" d="M259.34,416.68c0.58,0.51,1.46-0.32,0.87-0.83C259.63,415.34,258.75,416.17,259.34,416.68z"/>
					<path class="st14" d="M253.18,416.37c0.58,0.51,1.45-0.32,0.87-0.83C253.48,415.04,252.6,415.86,253.18,416.37z"/>
					<path class="st14" d="M258.39,421.73c0.58,0.51,1.46-0.32,0.87-0.83C258.68,420.4,257.8,421.22,258.39,421.73z"/>
					<path class="st14" d="M257.84,416.72c-0.58-0.51-1.46,0.32-0.87,0.83C257.55,418.05,258.42,417.23,257.84,416.72z"/>
					<path class="st14" d="M261.44,418.25c0.58,0.51,1.45-0.32,0.87-0.83C261.73,416.92,260.85,417.74,261.44,418.25z"/>
					<path class="st14" d="M259.17,408.79c-0.58-0.51-1.45,0.32-0.87,0.83C258.88,410.12,259.75,409.3,259.17,408.79z"/>
					<path class="st14" d="M267.79,409.65c-0.58-0.51-1.46,0.32-0.87,0.82C267.49,410.98,268.37,410.16,267.79,409.65z"/>
					<path class="st14" d="M266.38,416.44c-0.58-0.51-1.46,0.32-0.87,0.83C266.08,417.77,266.96,416.95,266.38,416.44z"/>
					<path class="st14" d="M266.48,422.27c0.2-0.06,0.36-0.21,0.36-0.5c0.01-0.77-1.19-0.9-1.2-0.12c0,0.09,0.02,0.17,0.05,0.24
						c-0.38,0.14-0.64,0.6-0.25,0.94C265.93,423.26,266.61,422.75,266.48,422.27z"/>
					<path class="st14" d="M254.61,414.14c0.58,0.51,1.45-0.32,0.87-0.83C254.9,412.81,254.02,413.63,254.61,414.14z"/>
					<path class="st14" d="M254.24,421.5c-0.01,0.02-0.01,0.05-0.02,0.07c0,0,0,0,0,0c-0.02,0.06-0.04,0.11-0.04,0.18
						c0,0.14,0.05,0.25,0.11,0.35c-0.3,0.36-0.16,1.04,0.42,0.98c0.47-0.05,0.65-0.53,0.53-0.87c0.07-0.08,0.13-0.19,0.13-0.34
						c0-0.01-0.01-0.02-0.01-0.04c0.14-0.2,0.16-0.46-0.09-0.68C254.88,420.81,254.33,421.11,254.24,421.5z"/>
					<path class="st14" d="M261.76,420.94c0.58,0.51,1.46-0.31,0.87-0.82C262.05,419.61,261.17,420.43,261.76,420.94z"/>
					<path class="st14" d="M262.17,406.6c-0.58-0.51-1.46,0.32-0.87,0.82C261.87,407.93,262.75,407.11,262.17,406.6z"/>
					<path class="st14" d="M269.3,415.25c-0.58-0.51-1.45,0.32-0.87,0.82C269,416.58,269.88,415.76,269.3,415.25z"/>
					<path class="st14" d="M254.91,409.07c-0.58-0.51-1.45,0.32-0.87,0.83C254.62,410.4,255.5,409.58,254.91,409.07z"/>
					<path class="st14" d="M261.83,424.21c0.58,0.51,1.46-0.31,0.87-0.82C262.12,422.88,261.25,423.7,261.83,424.21z"/>
					<path class="st14" d="M251.77,417.55c-0.58-0.51-1.45,0.32-0.87,0.83C251.47,418.88,252.35,418.06,251.77,417.55z"/>
					<path class="st14" d="M257.37,424.37c0.21-0.38,0.06-0.94-0.48-0.89c-0.61,0.06-0.72,0.83-0.35,1.1
						c-0.14,0.2-0.16,0.47,0.08,0.68c0.58,0.51,1.45-0.32,0.87-0.83C257.46,424.41,257.41,424.39,257.37,424.37z"/>
					<path class="st14" d="M266.63,425.49c-0.01,0.77,1.19,0.9,1.2,0.12C267.83,424.84,266.63,424.71,266.63,425.49z"/>
					<path class="st14" d="M264.43,422.56c0.01-0.77-1.19-0.9-1.19-0.12C263.23,423.21,264.42,423.33,264.43,422.56z"/>
					<path class="st14" d="M264,426.27c-0.01,0.77,1.19,0.9,1.2,0.12C265.2,425.62,264.01,425.49,264,426.27z"/>
					<path class="st14" d="M264.79,428.69c-0.01,0.77,1.19,0.9,1.19,0.12C265.99,428.04,264.79,427.92,264.79,428.69z"/>
					<path class="st14" d="M260.98,427.05c-0.01,0.77,1.19,0.9,1.2,0.12C262.18,426.4,260.98,426.27,260.98,427.05z"/>
					<path class="st14" d="M257.2,422.18c-0.01,0.77,1.19,0.9,1.2,0.12C258.4,421.54,257.2,421.41,257.2,422.18z"/>
					<path class="st14" d="M256.53,429.62c-0.01,0.77,1.19,0.9,1.2,0.12C257.73,428.98,256.54,428.85,256.53,429.62z"/>
					<path class="st14" d="M261.16,429.66c-0.01,0.77,1.19,0.9,1.19,0.12C262.36,429.02,261.16,428.89,261.16,429.66z"/>
					<path class="st14" d="M270.62,428.74c-0.01,0.77,1.19,0.9,1.2,0.12C271.82,428.1,270.63,427.97,270.62,428.74z"/>
					<path class="st14" d="M264.56,432.11c-0.01,0.77,1.19,0.9,1.2,0.12C265.76,431.46,264.56,431.33,264.56,432.11z"/>
					<path class="st14" d="M260.3,435.69c-0.01,0.77,1.19,0.9,1.2,0.12C261.5,435.05,260.31,434.92,260.3,435.69z"/>
					<path class="st14" d="M260.52,431.78c0.01-0.77-1.19-0.9-1.19-0.12C259.32,432.43,260.52,432.56,260.52,431.78z"/>
					<path class="st14" d="M270.46,422.61c0.01-0.77-1.19-0.9-1.2-0.12C269.26,423.26,270.46,423.39,270.46,422.61z"/>
					<path class="st14" d="M267.36,433.54c-0.01,0.77,1.19,0.9,1.19,0.12C268.56,432.9,267.37,432.77,267.36,433.54z"/>
					<path class="st14" d="M263.86,418.73c0.01-0.77-1.19-0.9-1.2-0.12C262.65,419.38,263.85,419.51,263.86,418.73z"/>
					<path class="st14" d="M256.9,433.85c-0.01,0.77,1.19,0.9,1.19,0.12C258.1,433.21,256.9,433.08,256.9,433.85z"/>
					<path class="st14" d="M253.23,430.08c-0.02-0.29-0.2-0.54-0.57-0.51c-0.76,0.08-0.76,1.28,0.01,1.2c0.02,0,0.04-0.01,0.06-0.02
						c0.16,0.61,1.16,0.67,1.16-0.04C253.9,430.31,253.55,430.09,253.23,430.08z"/>
				</g>
			</g>
		</g>
		<path class="st15" d="M234.58,337.53h136.36c5.67,0,10.26-4.59,10.26-10.26V194.78c0-5.67-4.59-10.26-10.26-10.26H234.58
			c-5.67,0-10.26,4.59-10.26,10.26v132.49C224.32,332.94,228.92,337.53,234.58,337.53z"/>
		<path class="st14" d="M252.09,355.03h136.36c5.67,0,10.26-4.59,10.26-10.26V212.28c0-5.67-4.59-10.26-10.26-10.26H252.09
			c-5.67,0-10.26,4.59-10.26,10.26v132.49C241.82,350.44,246.42,355.03,252.09,355.03z"/>
		<g>
			<rect x="321.16" y="235" class="st16" width="21" height="76"/>
			<path class="st16" d="M332.16,342h-1c-5.52,0-10-4.48-10-10l0,0c0-5.52,4.48-10,10-10h1c5.52,0,10,4.48,10,10l0,0
				C342.16,337.52,337.68,342,332.16,342z"/>
		</g>
		<g>
			<path class="st16" d="M364.16,221.06h31.4c4.16,0,7.54,3.38,7.54,7.54v29.46h7V228.6c0-8.03-6.51-14.54-14.54-14.54h-31.4V221.06
				z"/>
			<path class="st16" d="M260.21,258.07V228.6c0-4.16,3.38-7.54,7.54-7.54h31.4v-7h-31.4c-8.03,0-14.54,6.51-14.54,14.54v29.46
				H260.21z"/>
			<path class="st16" d="M403.1,323.07v29.46c0,4.16-3.38,7.54-7.54,7.54h-31.4v7h31.4c8.03,0,14.54-6.51,14.54-14.54v-29.46H403.1z
				"/>
			<path class="st16" d="M299.16,360.07h-31.4c-4.16,0-7.54-3.38-7.54-7.54v-29.46h-7v29.46c0,8.03,6.51,14.54,14.54,14.54h31.4
				V360.07z"/>
		</g>
	</g>
</g>
<g id="people_icon">
	<g>
		<g>
			<g>
				<g>
					
						<rect x="1238.39" y="430" transform="matrix(0.9948 -0.1016 0.1016 0.9948 -38.6986 129.4822)" class="st13" width="28.02" height="29.67"/>
					<path class="st14" d="M1245.33,439.91c-0.76,0.08-0.76,1.28,0.01,1.2C1246.11,441.03,1246.1,439.83,1245.33,439.91z"/>
					<path class="st14" d="M1242.68,443.62c-0.77,0.08-0.76,1.28,0.01,1.2C1243.45,444.74,1243.45,443.54,1242.68,443.62z"/>
					<path class="st14" d="M1246.4,442.43c-0.76,0.08-0.76,1.28,0.01,1.2C1247.17,443.55,1247.17,442.35,1246.4,442.43z"/>
					<path class="st14" d="M1248.72,441.38c-0.76,0.08-0.76,1.28,0.01,1.2C1249.49,442.51,1249.49,441.3,1248.72,441.38z"/>
					<path class="st14" d="M1247.51,446.55c0.76-0.08,0.76-1.28-0.01-1.2C1246.74,445.43,1246.75,446.63,1247.51,446.55z"/>
					<path class="st14" d="M1243.09,449.64c-0.76,0.08-0.76,1.28,0.01,1.2C1243.86,450.77,1243.86,449.57,1243.09,449.64z"/>
					<path class="st14" d="M1250.56,449.49c-0.13,0.01-0.23,0.07-0.31,0.13c-0.25-0.5-1.12-0.5-1.13,0.16
						c0,0.53,0.55,0.74,0.91,0.58c0.07,0.2,0.25,0.35,0.54,0.32C1251.33,450.61,1251.33,449.41,1250.56,449.49z"/>
					<path class="st14" d="M1246.53,447.67c-0.76,0.08-0.76,1.28,0.01,1.2C1247.3,448.8,1247.3,447.6,1246.53,447.67z"/>
					<path class="st14" d="M1241.63,441.3c-0.76,0.08-0.76,1.28,0.01,1.2C1242.4,442.42,1242.4,441.22,1241.63,441.3z"/>
					<path class="st14" d="M1248.13,436.78c0.77-0.08,0.76-1.28-0.01-1.2C1247.36,435.66,1247.37,436.86,1248.13,436.78z"/>
					<path class="st14" d="M1252.15,442.44c0.76-0.08,0.76-1.28-0.01-1.2C1251.38,441.31,1251.38,442.52,1252.15,442.44z"/>
					<path class="st14" d="M1256.36,445.09c0.02-0.05,0.03-0.1,0.04-0.16c0.01-0.77-1.19-0.9-1.2-0.12c0,0.34,0.23,0.54,0.49,0.61
						c-0.19,0.37-0.03,0.91,0.5,0.86C1256.88,446.2,1256.93,445.21,1256.36,445.09z"/>
					<path class="st14" d="M1242.43,448.28c0.76-0.08,0.76-1.28-0.01-1.2C1241.66,447.16,1241.66,448.36,1242.43,448.28z"/>
					<path class="st14" d="M1242.06,437.61c-0.76,0.08-0.76,1.28,0.01,1.2C1242.84,438.74,1242.83,437.53,1242.06,437.61z"/>
					<path class="st14" d="M1253.27,439.49c0.76-0.08,0.76-1.28-0.01-1.2C1252.49,438.37,1252.5,439.57,1253.27,439.49z"/>
					<path class="st14" d="M1238.93,444.61c-0.76,0.08-0.76,1.28,0.01,1.2C1239.71,445.73,1239.7,444.53,1238.93,444.61z"/>
					<path class="st14" d="M1254.73,449.86c0.39-0.04,0.58-0.37,0.57-0.67c0.03-0.07,0.05-0.15,0.05-0.25
						c0.01-0.77-1.19-0.9-1.2-0.12c0,0.09,0.02,0.17,0.05,0.24C1254.06,449.43,1254.23,449.91,1254.73,449.86z"/>
					<path class="st14" d="M1243,452.69c-0.76,0.08-0.76,1.28,0.01,1.2C1243.77,453.81,1243.77,452.61,1243,452.69z"/>
					<path class="st14" d="M1251.95,453.19c-0.76,0.08-0.76,1.28,0.01,1.2C1252.72,454.31,1252.72,453.11,1251.95,453.19z"/>
					<path class="st14" d="M1257.22,434.38c0.58,0.51,1.45-0.32,0.87-0.83C1257.51,433.05,1256.64,433.87,1257.22,434.38z"/>
					<path class="st14" d="M1253.57,434.14c-0.58-0.51-1.45,0.32-0.87,0.82C1253.27,435.47,1254.15,434.65,1253.57,434.14z"/>
					<path class="st14" d="M1256.97,436.05c-0.58-0.51-1.45,0.32-0.87,0.83C1256.68,437.38,1257.56,436.56,1256.97,436.05z"/>
					<path class="st14" d="M1258.45,437.86c0.58,0.51,1.46-0.31,0.87-0.82C1258.74,436.53,1257.86,437.35,1258.45,437.86z"/>
					<path class="st14" d="M1254.72,439.68c0.58,0.51,1.46-0.32,0.87-0.83C1255.01,438.34,1254.13,439.17,1254.72,439.68z"/>
					<path class="st14" d="M1248.56,439.37c0.58,0.51,1.45-0.32,0.87-0.83C1248.86,438.04,1247.98,438.86,1248.56,439.37z"/>
					<path class="st14" d="M1253.77,444.73c0.58,0.51,1.46-0.32,0.87-0.83C1254.06,443.4,1253.18,444.22,1253.77,444.73z"/>
					<path class="st14" d="M1253.22,439.72c-0.58-0.51-1.46,0.32-0.87,0.83C1252.93,441.05,1253.8,440.23,1253.22,439.72z"/>
					<path class="st14" d="M1256.82,441.25c0.58,0.51,1.45-0.32,0.87-0.83C1257.11,439.92,1256.23,440.74,1256.82,441.25z"/>
					<path class="st14" d="M1254.55,431.79c-0.58-0.51-1.46,0.32-0.87,0.83C1254.26,433.12,1255.13,432.3,1254.55,431.79z"/>
					<path class="st14" d="M1263.17,432.65c-0.58-0.51-1.46,0.32-0.87,0.82C1262.87,433.98,1263.75,433.16,1263.17,432.65z"/>
					<path class="st14" d="M1261.76,439.44c-0.58-0.51-1.46,0.32-0.87,0.83C1261.46,440.77,1262.34,439.95,1261.76,439.44z"/>
					<path class="st14" d="M1261.86,445.27c0.2-0.06,0.36-0.21,0.36-0.5c0.01-0.77-1.19-0.9-1.2-0.12c0,0.09,0.02,0.17,0.05,0.24
						c-0.38,0.14-0.64,0.6-0.25,0.94C1261.31,446.26,1261.99,445.75,1261.86,445.27z"/>
					<path class="st14" d="M1249.99,437.14c0.58,0.51,1.45-0.32,0.87-0.83C1250.28,435.81,1249.4,436.63,1249.99,437.14z"/>
					<path class="st14" d="M1249.62,444.5c-0.01,0.02-0.01,0.05-0.02,0.07c0,0,0,0,0,0c-0.02,0.06-0.04,0.11-0.04,0.18
						c0,0.14,0.05,0.25,0.11,0.35c-0.3,0.36-0.16,1.04,0.42,0.98c0.47-0.05,0.65-0.53,0.53-0.87c0.07-0.08,0.13-0.19,0.13-0.34
						c0-0.01-0.01-0.02-0.01-0.04c0.14-0.2,0.16-0.46-0.09-0.68C1250.26,443.81,1249.71,444.11,1249.62,444.5z"/>
					<path class="st14" d="M1257.14,443.94c0.58,0.51,1.46-0.31,0.87-0.82C1257.43,442.61,1256.55,443.43,1257.14,443.94z"/>
					<path class="st14" d="M1257.55,429.6c-0.58-0.51-1.46,0.32-0.87,0.82C1257.25,430.93,1258.13,430.11,1257.55,429.6z"/>
					<path class="st14" d="M1264.68,438.25c-0.58-0.51-1.45,0.32-0.87,0.82C1264.38,439.58,1265.26,438.76,1264.68,438.25z"/>
					<path class="st14" d="M1250.29,432.07c-0.58-0.51-1.45,0.32-0.87,0.83C1250,433.4,1250.88,432.58,1250.29,432.07z"/>
					<path class="st14" d="M1257.21,447.21c0.58,0.51,1.46-0.31,0.87-0.82C1257.5,445.88,1256.63,446.7,1257.21,447.21z"/>
					<path class="st14" d="M1247.15,440.55c-0.58-0.51-1.45,0.32-0.87,0.83C1246.85,441.88,1247.73,441.06,1247.15,440.55z"/>
					<path class="st14" d="M1252.75,447.37c0.21-0.38,0.06-0.94-0.48-0.89c-0.61,0.06-0.72,0.83-0.35,1.1
						c-0.14,0.2-0.16,0.47,0.08,0.68c0.58,0.51,1.45-0.32,0.87-0.83C1252.84,447.41,1252.79,447.39,1252.75,447.37z"/>
					<path class="st14" d="M1262.01,448.49c-0.01,0.77,1.19,0.9,1.2,0.12C1263.21,447.84,1262.01,447.71,1262.01,448.49z"/>
					<path class="st14" d="M1259.81,445.56c0.01-0.77-1.19-0.9-1.19-0.12C1258.61,446.21,1259.8,446.33,1259.81,445.56z"/>
					<path class="st14" d="M1259.38,449.27c-0.01,0.77,1.19,0.9,1.2,0.12C1260.58,448.62,1259.39,448.49,1259.38,449.27z"/>
					<path class="st14" d="M1260.17,451.69c-0.01,0.77,1.19,0.9,1.19,0.12C1261.37,451.04,1260.17,450.92,1260.17,451.69z"/>
					<path class="st14" d="M1256.36,450.05c-0.01,0.77,1.19,0.9,1.2,0.12C1257.56,449.4,1256.36,449.27,1256.36,450.05z"/>
					<path class="st14" d="M1252.58,445.18c-0.01,0.77,1.19,0.9,1.2,0.12C1253.78,444.54,1252.58,444.41,1252.58,445.18z"/>
					<path class="st14" d="M1251.91,452.62c-0.01,0.77,1.19,0.9,1.2,0.12C1253.11,451.98,1251.92,451.85,1251.91,452.62z"/>
					<path class="st14" d="M1256.54,452.66c-0.01,0.77,1.19,0.9,1.19,0.12C1257.74,452.02,1256.54,451.89,1256.54,452.66z"/>
					<path class="st14" d="M1266,451.74c-0.01,0.77,1.19,0.9,1.2,0.12C1267.2,451.1,1266.01,450.97,1266,451.74z"/>
					<path class="st14" d="M1259.94,455.11c-0.01,0.77,1.19,0.9,1.2,0.12C1261.14,454.46,1259.94,454.33,1259.94,455.11z"/>
					<path class="st14" d="M1255.68,458.69c-0.01,0.77,1.19,0.9,1.2,0.12C1256.88,458.05,1255.69,457.92,1255.68,458.69z"/>
					<path class="st14" d="M1255.9,454.78c0.01-0.77-1.19-0.9-1.19-0.12C1254.7,455.43,1255.9,455.56,1255.9,454.78z"/>
					<path class="st14" d="M1265.84,445.61c0.01-0.77-1.19-0.9-1.2-0.12C1264.64,446.26,1265.84,446.39,1265.84,445.61z"/>
					<path class="st14" d="M1262.74,456.54c-0.01,0.77,1.19,0.9,1.19,0.12C1263.94,455.9,1262.75,455.77,1262.74,456.54z"/>
					<path class="st14" d="M1259.24,441.73c0.01-0.77-1.19-0.9-1.2-0.12C1258.03,442.38,1259.23,442.51,1259.24,441.73z"/>
					<path class="st14" d="M1252.28,456.85c-0.01,0.77,1.19,0.9,1.19,0.12C1253.48,456.21,1252.28,456.08,1252.28,456.85z"/>
					<path class="st14" d="M1248.61,453.08c-0.02-0.29-0.2-0.54-0.57-0.51c-0.76,0.08-0.76,1.28,0.01,1.2
						c0.02,0,0.04-0.01,0.06-0.02c0.16,0.61,1.16,0.67,1.16-0.04C1249.28,453.31,1248.93,453.09,1248.61,453.08z"/>
				</g>
			</g>
		</g>
		<path class="st14" d="M1254.46,380.01h-123.93c-8.03,0-14.54-6.51-14.54-14.54V241.54c0-8.03,6.51-14.54,14.54-14.54h123.93
			c8.03,0,14.54,6.51,14.54,14.54v123.93C1269,373.5,1262.49,380.01,1254.46,380.01z"/>
		<path class="st17" d="M1241.57,390.07h-123.93c-8.03,0-14.54-6.51-14.54-14.54V251.6c0-8.03,6.51-14.54,14.54-14.54h123.93
			c8.03,0,14.54,6.51,14.54,14.54v123.93C1256.11,383.56,1249.6,390.07,1241.57,390.07z"/>
		<g>
			<circle class="st10" cx="1179.61" cy="295.07" r="17"/>
			<path class="st10" d="M1230.18,345.07c-11.23-15.82-29.69-26.16-50.57-26.16s-39.34,10.34-50.57,26.16H1230.18z"/>
		</g>
		<radialGradient id="SVGID_6_" cx="1082.5474" cy="291.6631" r="261.2883" gradientUnits="userSpaceOnUse">
			<stop  offset="0" style="stop-color:#F6B9B8"/>
			<stop  offset="1" style="stop-color:#FFFFFF;stop-opacity:0"/>
		</radialGradient>
		<path class="st18" d="M1120.84,390.07h120.73c8.03,0,14.54-6.51,14.54-14.54V254.8L1120.84,390.07z"/>
	</g>
</g>
<g id="woman">
	<path class="st17" d="M1027.5,670.26c0,0,14.11-27.19,54.38-43.13c0,0,17.59-16.74,40.87-27.49c10.45-4.83,18.41-8.69,24.02-11.49
		c6.83-3.41,14.59-4.84,22.31-4.1l0,0c0,0-39.74,25.87-44.6,36.1l5.15-0.57c0,0,43.73-38.09,70.34-38.96l12.11,1.88l-0.36,4.79
		l9.64-6.01c0,0,11.24-0.11,15.08,3.07L1225.25,597l-30.03,32.39c0,0,34.16-33.04,58.37-29.27l5,1.34l-41.48,35.37l-24.15,22.24
		l-65.18,24.9l-78.23,21.98l-34.8,1.21L1027.5,670.26z"/>
	
		<radialGradient id="SVGID_7_" cx="1123.2544" cy="643.2097" r="63.0608" gradientTransform="matrix(1.0087 0.1349 -0.134 0.9513 99.0575 -87.2055)" gradientUnits="userSpaceOnUse">
		<stop  offset="0.0718" style="stop-color:#F6B9B8"/>
		<stop  offset="1" style="stop-color:#F6B9B8;stop-opacity:0"/>
	</radialGradient>
	<path class="st19" d="M1027.5,670.26c0,0,14.11-27.19,54.38-43.13c0,0,17.59-16.74,40.87-27.49c10.45-4.83,18.41-8.69,24.02-11.49
		c6.83-3.41,14.59-4.84,22.31-4.1l0,0c0,0-39.74,25.87-44.6,36.1l5.15-0.57c0,0,41.2-35.89,67.95-38.79
		c1.42-0.15,2.85-0.1,4.26,0.12l10.24,1.59l-0.36,4.79l9.64-6.01c0,0,11.24-0.11,15.08,3.07L1225.25,597l-55.28,46.76
		c0,0,59.42-47.41,83.63-43.64l5,1.34l-41.48,35.37l-24.15,22.24l-65.18,24.9l-78.23,21.98l-34.8,1.21L1027.5,670.26z"/>
	<path class="st17" d="M1044.59,796.74c11.66-22.5,21.57-45.9,29.6-69.93c1.74-5.21,3.43-10.51,6.33-15.17
		c9.92-15.92,37.06-16.83,53.77-18.47c1.66-0.16,3.37-0.32,4.84-1.1c1.62-0.87,2.75-2.4,3.86-3.86
		c5.96-7.86,12.77-15.07,20.28-21.47c4.1-3.5,8.53-7.35,13.12-10.17c1.4-0.86,13.48-7.56,14.37-6.88c-6.38-5.2-15.3-6.62-23.38-5.01
		s-15.38,5.98-21.7,11.26c-5.64,4.71-19.2,0.95-26.56,1.37c-11,0.63-21.93,2.65-32.42,6.03c-4.91,1.58-10.64,3.36-14.9,0.45
		c-6.78-4.63-7.23-13-16.8-13.26c-9.35-0.25-18.8,8.13-23.93,15.08c-5.97,8.09-9.48,17.69-13.18,27.04
		c-15.67,39.69-36.32,79.08-36.72,121.74c-0.11,11.43,2.92,25.12,13.65,29.04c10.56,3.86,18.72-4.03,25.71-10.61
		c8.47-7.97,14.45-18.15,19.94-28.29C1041.86,801.93,1043.24,799.34,1044.59,796.74z"/>
	<radialGradient id="SVGID_8_" cx="1080.579" cy="770.7263" r="95.8936" gradientUnits="userSpaceOnUse">
		<stop  offset="0.0718" style="stop-color:#F6B9B8"/>
		<stop  offset="1" style="stop-color:#F6B9B8;stop-opacity:0"/>
	</radialGradient>
	<path class="st20" d="M1082.42,693.36c-13.5,2.36-25.45,9.55-39.56,7.45c-6.43-0.96-12.69-3.19-18.47-6.14
		c-2.04-1.04-3.84-2.14-5.57-3.62c-0.08-0.07-0.16-0.14-0.23-0.21c-0.24,0.6-0.47,1.2-0.71,1.8
		c-15.67,39.69-36.32,79.08-36.72,121.74c-0.11,11.43,2.92,25.12,13.65,29.04c10.56,3.86,18.72-4.03,25.71-10.61
		c8.47-7.97,14.45-18.15,19.94-28.29c1.4-2.58,2.77-5.17,4.12-7.77c11.66-22.5,21.57-45.9,29.6-69.93
		c1.74-5.21,3.43-10.51,6.33-15.17c6.96-11.17,22.4-14.95,36.76-16.77C1105.5,693.65,1093.5,691.42,1082.42,693.36z"/>
	<path class="st17" d="M781,499c0,0-40.19,27.82-51.94,91.62c-3.03,16.44-0.53,33.43,6.94,48.38l0,0l29,15l-36,49l-151,30l-67-18
		l-6-83l25-82l87-91l64-30l71-8L781,499z"/>
	
		<radialGradient id="SVGID_9_" cx="873.2653" cy="777.6439" r="262.4521" gradientTransform="matrix(0.9962 -0.0876 0.0876 0.9962 -74.7879 63.9513)" gradientUnits="userSpaceOnUse">
		<stop  offset="0" style="stop-color:#213864"/>
		<stop  offset="1" style="stop-color:#51B6C4;stop-opacity:0"/>
	</radialGradient>
	<path class="st21" d="M743.79,1016.59l68.84-6.05c-22.23-19.13-34.97-47.52-45.42-75.21c-9.21-24.4-16.54-49.34-24.76-74.04
		c-6.62-19.91-12.8-38.98-28.62-53.95c-5.05-4.78-10.7-8.98-15.18-14.3c-8.2-9.73-11.87-22.38-15.32-34.63
		c1.05,3.72-14.58,28.78-16.16,34.96c-3.48,13.57,2.22,26.07-1.09,39.43c-3.34,13.47-16.11,22.23-28.43,28.63
		c-12.32,6.4-25.84,12.31-33.48,23.89c-12.28,18.62-4.34,43.92,7.62,62.75c12.51,19.7,28.9,36.62,46.59,51.91L743.79,1016.59z"/>
	<radialGradient id="SVGID_10_" cx="783.0737" cy="436.7053" r="127.9036" gradientUnits="userSpaceOnUse">
		<stop  offset="0.0718" style="stop-color:#FD959C"/>
		<stop  offset="1" style="stop-color:#F6B9B8;stop-opacity:0"/>
	</radialGradient>
	<path class="st22" d="M781,499c0,0-40.19,27.82-51.94,91.62c-3.03,16.44-0.53,33.43,6.94,48.38l0,0l29,15l-36,49l-151,30l-67-18
		l-6-83l25-82l87-91l64-30l71-8L781,499z"/>
	<path class="st23" d="M482.92,848.68c14.44,9.21,28.5,19.2,42.21,29.95c49.93,39.16,94.83,87.85,154.49,109.48
		c46.33,16.8,92.97,12.24,140.19,2.94c45.1-8.89,87.44-24.83,133.71-29.92c24.75-2.72,49.68-3.8,74.57-3.22
		c6.82-24.17,13.02-48.53,18.48-73.04c4.39-19.72,8-39.54,11.51-59.42c1.68-9.5,3.23-19.02,4.76-28.55
		c1.54-9.54,4.81-20.24,4.81-29.89c0.29-1.82,1.21-4.15,3.04-3.94c1.34-1.2-0.36-3.25-0.67-5.02c-0.21-1.2,0.29-2.4,0.82-3.5
		c5.82-12.27,15.66-22.59,27.63-28.99c-6.49,0.03-12.97,0.07-19.46,0.1c-7.37,0.04-8.47-3.07-12.54-8.02
		c-3.18-3.87-6.48-5.14-11.46-5.96c-11.26-1.85-23.34-1.51-31.99-10.19c-3.47-3.48-6.09-7.88-10.18-10.62
		c-2.86-1.91-6.24-2.87-9.37-4.28c-3.14-1.41-6.23-3.51-7.5-6.71c-5.88,12.74-1.94,25.24,0.18,38.28c1.2,7.38,0.63,15.03-1.64,22.15
		c-1.35-1.22-3.34,1.09-2.93,2.86c0.41,1.77,1.89,3.16,2.26,4.94c0.42,2.05-0.72,4.05-1.82,5.83
		c-7.65,12.44-15.96,24.72-22.89,37.58c-8.88,16.47-16.88,33.41-23.97,50.72c-7.09,17.31-13.27,35-18.49,52.96
		c-4.71,16.23-10.13,31.71-14.97,47.84c-1.29,4.3-2.62,8.6-3.71,12.95c0,0,2-15-1-15s-5,13-5,13s1-11-3-13s-3,9-3,9
		s-76.06-285.12-149-307c-60-18-92,22-134,50s-92,51-89-27h-22c0,0-39,28-35,124C467.84,810.24,473.9,830.04,482.92,848.68z"/>
	<path class="st17" d="M825,259c0,0,43.38,76.22,51,172c7,88-6,85-66,85s-99-63-99-63s-22,45-54,1c-15.66-21.53-4-54,33-43l-34-44
		l29-52l114-49L825,259z"/>
	<radialGradient id="SVGID_11_" cx="822.5459" cy="285.8958" r="116.6747" gradientUnits="userSpaceOnUse">
		<stop  offset="0.0718" style="stop-color:#FD959C"/>
		<stop  offset="1" style="stop-color:#F6B9B8;stop-opacity:0"/>
	</radialGradient>
	<path class="st24" d="M876,431c-3.09-38.86-12.07-74.5-21.65-103.14C779.41,324.35,754,381,754,381l55,68l67.73-8.02
		C876.52,437.79,876.28,434.47,876,431z"/>
	<radialGradient id="SVGID_12_" cx="837.6421" cy="459.6105" r="46.2781" gradientUnits="userSpaceOnUse">
		<stop  offset="0.0718" style="stop-color:#FD959C"/>
		<stop  offset="1" style="stop-color:#F6B9B8;stop-opacity:0"/>
	</radialGradient>
	<ellipse class="st25" cx="855.5" cy="448" rx="5.5" ry="9"/>
	
		<radialGradient id="SVGID_13_" cx="820.3497" cy="374.413" r="35.9061" gradientTransform="matrix(0.9303 0.3668 -0.3668 0.9303 235.3661 -203.2181)" gradientUnits="userSpaceOnUse">
		<stop  offset="0.0718" style="stop-color:#F6B9B8"/>
		<stop  offset="1" style="stop-color:#F6B9B8;stop-opacity:0"/>
	</radialGradient>
	<path class="st26" d="M823.89,434.59c0,0,33.83,6.89,18.57,37.42c0,0,9-20.1-14.09-32.43
		C805.28,427.25,823.89,434.59,823.89,434.59z"/>
	<radialGradient id="SVGID_14_" cx="1208.2527" cy="726.2" r="90.1608" gradientUnits="userSpaceOnUse">
		<stop  offset="0.0718" style="stop-color:#F6B9B8"/>
		<stop  offset="1" style="stop-color:#F6B9B8;stop-opacity:0"/>
	</radialGradient>
	<path class="st27" d="M1159.45,675.5c-0.68,0.46-1.4,0.93-2.22,1.03c-0.92,0.11-1.82-0.26-2.7-0.58
		c-3.75-1.38-7.83-1.84-11.79-1.34c0.63-4.15,5.18-6.36,9.23-7.46c4.05-1.1,8.66-2.11,10.85-5.68c0.78-1.27,1.15-2.74,1.85-4.05
		c2.53-4.75,8.45-6.28,13.59-7.86c6.26-1.93,31.3-17.77,34.69-14.99C1198.89,650.68,1177.15,663.62,1159.45,675.5z"/>
	<radialGradient id="SVGID_15_" cx="1207.1827" cy="849.8964" r="295.3148" gradientUnits="userSpaceOnUse">
		<stop  offset="0" style="stop-color:#213864"/>
		<stop  offset="1" style="stop-color:#51B6C4;stop-opacity:0"/>
	</radialGradient>
	<path class="st28" d="M1098.48,725.57c-5.05,0.03-10.1,0.05-15.14,0.08c-2.63,3.3-4.89,6.51-6.51,8.87
		c-3.82,5.57-7.46,11.98-13.77,14.4c-3.72,1.43-7.87,1.21-11.8,0.56c-17.54-2.9-34.26-14.01-51.72-10.65
		c14.37,3.33,28.52,7.61,42.34,12.78c6.48,2.43,13.56,5.71,16,12.19c0.7,1.86,0.9,4.12-0.31,5.69c-0.89,1.17-2.35,1.72-3.53,2.59
		c-3.98,2.92-4.21,8.64-4.55,13.57c-0.48,6.92-1.91,13.73-3.37,20.51c-11.43,52.78-26.33,106.44-54.26,152.09
		c12.07-0.5,24.16-0.61,36.24-0.33c0.92-3.25,1.82-6.49,2.71-9.75c0.44-1.6,0.87-3.19,1.3-4.79c0.57-2.1,1.13-4.2,1.69-6.31
		c0.42-1.56,0.83-3.13,1.24-4.69c0.69-2.63,1.37-5.26,2.04-7.89c0.25-0.98,0.51-1.95,0.75-2.93c0.89-3.53,1.77-7.07,2.64-10.61
		c0.29-1.19,0.57-2.37,0.86-3.56c0.64-2.67,1.28-5.33,1.91-8c0.27-1.13,0.53-2.27,0.8-3.4c0.86-3.7,1.71-7.4,2.53-11.11
		c2.74-12.32,5.18-24.69,7.48-37.08c1.38-7.44,2.71-14.88,4.03-22.34c1.68-9.5,3.23-19.02,4.76-28.55c0.1-0.6,0.2-1.2,0.31-1.8
		c0.43-2.42,0.96-4.9,1.49-7.42c0.53-2.51,1.08-5.05,1.55-7.59c0.83-4.44,1.46-8.86,1.46-13.08c0.22-1.37,0.79-3.02,1.84-3.67
		c0.26-0.16,0.55-0.26,0.87-0.28c0.11-0.01,0.22,0,0.33,0.01c0.34-0.3,0.48-0.65,0.51-1.04c0.01-0.1,0-0.2,0-0.3
		c-0.09-1.11-0.96-2.46-1.17-3.68c-0.08-0.45-0.06-0.9,0.03-1.34c0.14-0.74,0.46-1.47,0.79-2.15
		C1076.67,742.29,1086.51,731.97,1098.48,725.57z"/>
	<radialGradient id="SVGID_16_" cx="858.7589" cy="966.5418" r="77.9305" gradientUnits="userSpaceOnUse">
		<stop  offset="0" style="stop-color:#213864"/>
		<stop  offset="1" style="stop-color:#51B6C4;stop-opacity:0"/>
	</radialGradient>
	<path class="st29" d="M866.78,854.77c5.49,35.37,12.44,70.52,20.86,105.31c-0.65-2.61,2.55-4.96,5.15-4.29
		c2.6,0.67,4.27,3.3,4.85,5.92c0.24-1.77,1.48-3.37,3.13-4.04c2.08,3.82,3.53,7.98,4.35,12.25c0.88-0.21,1.76-0.42,2.64-0.62
		c2.06-11.5,4.17-22.98,6.46-34.44v0c-0.85,2.71-1.7,5.43-2.52,8.18c-1.29,4.3-2.62,8.6-3.71,12.95c0,0,2-15-1-15s-5,13-5,13
		s1-11-3-13s-3,9-3,9S884.76,907.88,866.78,854.77z"/>
	<radialGradient id="SVGID_17_" cx="322.179" cy="578.6" r="375.7654" gradientUnits="userSpaceOnUse">
		<stop  offset="0" style="stop-color:#213864"/>
		<stop  offset="1" style="stop-color:#51B6C4;stop-opacity:0"/>
	</radialGradient>
	<path class="st30" d="M613,693c-42,28-92,51-89-27h-22c0,0-26.99,19.39-33.76,81.18c14.71-3.88,30.71-2.17,46.07-0.82
		c18.12,1.6,37.58,2.25,53.11-7.22c7.27-4.44,13.13-10.8,19.03-16.94c14.13-14.71,29.08-28.64,44.76-41.69
		C646.94,667.42,642.56,673.29,613,693z"/>
	<radialGradient id="SVGID_18_" cx="808.0842" cy="574.2632" r="311.1896" gradientUnits="userSpaceOnUse">
		<stop  offset="0" style="stop-color:#B2E3E0"/>
		<stop  offset="1" style="stop-color:#51B6C4;stop-opacity:0"/>
	</radialGradient>
	<path class="st31" d="M737.9,691.89c38.76,47.85,50.85,112.28,85.49,163.19c5.95,8.74,12.76,17.25,21.88,22.61
		c8.97,5.27,20.6,6.99,29.81,2.22C847.45,793.98,796.51,657.85,747,643c-43.19-12.96-71.87,4.14-100.22,25.18
		c2.95-1.45,5.9-3.11,8.79-4.05c5.46-1.77,11.11-2.98,16.82-3.55c12.65-1.26,25.68,0.67,37.04,6.52
		C720.71,672.89,729.92,682.04,737.9,691.89z"/>
	<path class="st32" d="M876.28,259.72c-2.19-19.16-6.93-37.85-15.79-55.08c-7.5-14.59-20.94-30.4-39.37-28.27
		c-10.28,1.19-19.72,10.17-19.46,20.51c-0.39-15.11-28.78-28.78-40.7-32.35c-21.31-6.38-43.95-6.75-66-5.47
		c-17.43,1.01-35.2,3.15-50.92,10.76c-27.4,13.27-44.84,41.61-53.27,70.86c-2.51,8.71-4.42,17.76-9.03,25.57
		c-13.6,23.02-44.58,27.36-66.92,42.05c-20.08,13.21-36.12,39.25-35.06,63.91c0.55,12.76,4.53,23.11,1.35,36.27
		c-0.51,2.09-1.12,4.16-1.81,6.2c-14.25,21.41-35.76,38.63-53.56,56.38c-11.9,11.87-20.04,24.37-25.74,40.59
		c-5.87,16.69-8.36,34.58-7.05,52.23c0.03,0.35,0.06,0.71,0.08,1.06c2.65,31.92,17.78,62.64,41.47,84.21
		c-10.52-13.13-20.94-27.56-22.66-44.29c5.2,29.83,33.41,50.16,60.58,59c18.05,5.87,39.32,7.98,58.19,9.14
		c47.46,2.92,90.05-14.86,122.68-49.42c28.09-29.75,45.52-68.75,52.12-109.13c2.97-18.16,3.82-36.84,0.4-54.93
		c1.32,6.96-26.94-0.91-29.17-2.2c-8.98-5.21-16.53-14.35-13.64-25.33c10-38,56,8,35-24c-5.58-8.5-10.75-18.25-11.79-28.54
		c-0.39-3.86-0.81-12.86,3.63-14.33c1.37,6.31,3.36,11.94,6.88,17.45c4.01,6.27,8.93,11.93,12.72,18.33
		c7.73,13.08,10.33,29.1,7.13,43.96c7.61-18.29,8.21-39.41,1.64-58.1c-3.64-10.36-9.48-20.71-7.92-31.58
		c3.86-26.82,49.81-33.46,70.7-37.19c56-10,41-59,41-59l7.68,11.22c18.68,27.22,40.42,116.72,40.42,116.72
		c4.78-72.15-1.68-107.33-4.7-119.17c9.03,20.78,12.06,44.38,9.84,67C877.63,310.41,879.13,284.67,876.28,259.72z M864.12,263.35
		C864.04,263.12,864,263,864,263c0.03,0.05,0.05,0.11,0.08,0.16L864.12,263.35z"/>
	<radialGradient id="SVGID_19_" cx="721.5895" cy="473.6316" r="213.6188" gradientUnits="userSpaceOnUse">
		<stop  offset="0.0718" style="stop-color:#213864"/>
		<stop  offset="0.9282" style="stop-color:#3E3B6F;stop-opacity:0"/>
	</radialGradient>
	<path class="st33" d="M676.64,457.33c-8.98-5.21-16.53-14.35-13.64-25.33c0.49-1.85,1.06-3.5,1.71-4.97
		c-6.15,6.39-8.99,15.66-9.93,24.39c-1.49,13.83,0.29,28.24,1.58,42.02c1.25,13.39,2.78,26.77,3.21,40.22
		c0.87,27.45-4.42,53.86-17.88,77.96c-11.23,20.12-26.6,37.21-44.62,50.9c20.83-8.39,39.8-21.53,56.23-38.94
		c28.09-29.75,45.52-68.75,52.12-109.13c2.97-18.16,3.82-36.84,0.4-54.93C707.14,466.5,678.88,458.62,676.64,457.33z"/>
	<path class="st32" d="M864.12,263.35C864.04,263.12,864,263,864,263c0.03,0.05,0.05,0.11,0.08,0.16L864.12,263.35z"/>
	<radialGradient id="SVGID_20_" cx="432.4526" cy="287.5684" r="308.3442" gradientUnits="userSpaceOnUse">
		<stop  offset="0" style="stop-color:#EA6290"/>
		<stop  offset="0.9282" style="stop-color:#3E3B6F;stop-opacity:0"/>
	</radialGradient>
	<path class="st34" d="M791.72,180.94c-1.2-1.02-2.48-2.01-3.81-2.96c1.13,20.07-2.49,40.21-14.26,57.28
		c-11.83,17.15-31.13,25.25-50.58,30.43c-19.51,5.2-39.58,7.83-59.25,12.26c-18.26,4.11-37.49,9.68-51.89,22.22
		c-15.41,13.42-25.59,38.22-18.96,58.31c7.21,21.85,29.57,36.82,26.6,62.01c-2.79,23.69-22.9,42.4-38.31,58.86
		c-20.26,21.64-37.17,47.78-42.34,77.46c-1.54,8.82-1.41,17.32-0.51,26.19c0.78,7.72,1.67,15.54,0.17,23.23
		c-2.45,12.53-10.55,23.02-20.68,30.42c-10.49,7.66-23.39,12.96-36.07,15.65c-9.84,2.09-20.21,1.34-30.21,2.45
		c6.73,3.77,13.8,6.82,20.81,9.1c18.05,5.87,39.32,7.98,58.19,9.14c47.46,2.92,90.05-14.86,122.68-49.42
		c5.69-6.03,10.94-12.44,15.75-19.16c-18.31-16.16-34.67-34.41-45.45-56.09c-7.63-15.33-11.77-32.31-10.57-49.48
		c1.39-19.86,9.96-36.96,19.21-54.19c4.9-9.12,9.73-18.58,11.07-28.98c1.5-11.6-3.31-21.28-5.02-32.43
		c-2.81-18.38,4.48-35.25,15.83-49.37c12.82-15.95,28.48-27.94,46.65-37.2c17.91-9.12,36.94-16.13,53.88-27.09
		c18.52-11.98,32.7-28.42,36.81-50.55C793.8,206.47,793.26,193.65,791.72,180.94z"/>
	<radialGradient id="SVGID_21_" cx="478.3053" cy="514.5579" r="140.0137" gradientUnits="userSpaceOnUse">
		<stop  offset="0" style="stop-color:#EA6290"/>
		<stop  offset="0.9282" style="stop-color:#3E3B6F;stop-opacity:0"/>
	</radialGradient>
	<path class="st35" d="M791.72,180.94c-1.2-1.02-2.48-2.01-3.81-2.96c1.13,20.07-2.49,40.21-14.26,57.28
		c-11.83,17.15-31.13,25.25-50.58,30.43c-19.51,5.2-39.58,7.83-59.25,12.26c-18.26,4.11-37.49,9.68-51.89,22.22
		c-15.41,13.42-25.59,38.22-18.96,58.31c7.21,21.85,29.57,36.82,26.6,62.01c-2.79,23.69-22.9,42.4-38.31,58.86
		c-20.26,21.64-37.17,47.78-42.34,77.46c-1.54,8.82-1.41,17.32-0.51,26.19c0.78,7.72,1.67,15.54,0.17,23.23
		c-2.45,12.53-10.55,23.02-20.68,30.42c-10.49,7.66-23.39,12.96-36.07,15.65c-9.84,2.09-20.21,1.34-30.21,2.45
		c6.73,3.77,13.8,6.82,20.81,9.1c18.05,5.87,39.32,7.98,58.19,9.14c47.46,2.92,90.05-14.86,122.68-49.42
		c5.69-6.03,10.94-12.44,15.75-19.16c-18.31-16.16-34.67-34.41-45.45-56.09c-7.63-15.33-11.77-32.31-10.57-49.48
		c1.39-19.86,9.96-36.96,19.21-54.19c4.9-9.12,9.73-18.58,11.07-28.98c1.5-11.6-3.31-21.28-5.02-32.43
		c-2.81-18.38,4.48-35.25,15.83-49.37c12.82-15.95,28.48-27.94,46.65-37.2c17.91-9.12,36.94-16.13,53.88-27.09
		c18.52-11.98,32.7-28.42,36.81-50.55C793.8,206.47,793.26,193.65,791.72,180.94z"/>
	<radialGradient id="SVGID_22_" cx="861.0421" cy="421.7158" r="202.6323" gradientUnits="userSpaceOnUse">
		<stop  offset="0" style="stop-color:#EA6290"/>
		<stop  offset="0.9282" style="stop-color:#3E3B6F;stop-opacity:0"/>
	</radialGradient>
	<path class="st36" d="M850.63,266.24c-13.39-15.22-34.12-26.06-42.47-44.99c0.51,3.29,1.12,6.57,1.93,9.82
		c2.56,10.26,7.64,19.4,12.44,28.69l7.16,10.46c18.68,27.22,40.42,116.72,40.42,116.72c1.88-28.38,2.02-51.02,1.31-68.79
		C869.16,299.26,863.66,281.06,850.63,266.24z"/>
	<radialGradient id="SVGID_23_" cx="842.8527" cy="479.6947" r="346.4684" gradientUnits="userSpaceOnUse">
		<stop  offset="0" style="stop-color:#EA6290"/>
		<stop  offset="0.9282" style="stop-color:#3E3B6F;stop-opacity:0"/>
	</radialGradient>
	<path class="st37" d="M809.59,236.83c-2.71-8.55-3.82-17.27-4.8-26.15c0.55,9.64-0.2,19.32-2.78,28.86
		c-3.3,12.21-9.42,23.74-18.58,32.55c-8.3,7.99-18.53,13.54-29.11,17.89c-11.58,4.75-23.84,7.55-35.36,12.42
		c-11.29,4.78-22.05,11.17-31.21,19.35c-18.77,16.78-28.5,42.31-16.28,66.07c6.77,13.16,21.03,20.86,29.73,32.26
		c3.38,0.29,3.37-2.09-3.2-12.09c-5.58-8.5-10.75-18.25-11.79-28.54c-0.39-3.86-0.81-12.86,3.63-14.33
		c1.37,6.31,3.36,11.94,6.88,17.45c4.01,6.27,8.93,11.93,12.72,18.33c7.73,13.08,10.33,29.1,7.13,43.96
		c7.61-18.29,8.21-39.41,1.64-58.1c-3.64-10.36-9.48-20.71-7.92-31.58c3.86-26.82,49.81-33.46,70.7-37.19
		c42.83-7.65,44.13-38.11,42.37-52.01C818.56,256.34,812.85,247.11,809.59,236.83z"/>
	<radialGradient id="SVGID_24_" cx="1040.6632" cy="298.9368" r="478.1904" gradientUnits="userSpaceOnUse">
		<stop  offset="0" style="stop-color:#EA6290"/>
		<stop  offset="0.9282" style="stop-color:#FD959C;stop-opacity:0"/>
	</radialGradient>
	<path class="st38" d="M864.12,263.35C864.04,263.12,864,263,864,263c0.03,0.05,0.05,0.11,0.08,0.16L864.12,263.35z"/>
</g>
<g id="plane">
	<radialGradient id="SVGID_25_" cx="598.3464" cy="788.6135" r="387.4155" gradientUnits="userSpaceOnUse">
		<stop  offset="0" style="stop-color:#FFECE6"/>
		<stop  offset="1" style="stop-color:#FFFFFF;stop-opacity:0"/>
	</radialGradient>
	<path class="st39" d="M1238.77,1025.2c-39.96-32.28-88.31-53.14-138.96-60.96c-48.35-7.47-97.68-8.45-146.31-3.1
		c-46.27,5.09-88.6,21.03-133.71,29.92c-47.21,9.31-93.86,13.86-140.19-2.94c-59.66-21.64-104.56-70.32-154.49-109.48
		c-51.68-40.53-108.3-70.33-171.66-87.6c-62.5-17.03-127.76-26.56-186.3-55.66C95.83,699.91,51.43,630.72,33.42,554.7
		c-7.69-32.44-11.14-65.66-11.86-99.02H-26V1086c0,0,74.26,0.13,78.5,0.14c120.61,0.24,241.21,0.47,361.82,0.63
		c151.67,0.21,303.35,0.36,455.02,0.26c136.26-0.08,271.99-0.68,407.45,5.07C1279.09,1065.47,1259.57,1042,1238.77,1025.2z"/>
	<g>
		<polygon class="st40" points="923,576 1044,577 1332,499 		"/>
		<radialGradient id="SVGID_26_" cx="992.6737" cy="511.5052" r="188.1975" gradientUnits="userSpaceOnUse">
			<stop  offset="0.0665" style="stop-color:#C0E6F9"/>
			<stop  offset="0.8644" style="stop-color:#DBFBFF;stop-opacity:0"/>
		</radialGradient>
		<polygon class="st41" points="923,576 1044,577 1332,499 		"/>
		<polygon class="st6" points="1044,577 1332,499 1069,659 		"/>
		<radialGradient id="SVGID_27_" cx="1096.7579" cy="638.3263" r="172.1102" gradientUnits="userSpaceOnUse">
			<stop  offset="0.0293" style="stop-color:#77C3D1"/>
			<stop  offset="1" style="stop-color:#C0E6F9;stop-opacity:0"/>
		</radialGradient>
		<polygon class="st42" points="1044,577 1332,499 1069,659 		"/>
		<polygon class="st6" points="1069,659 1083,582 1332,499 		"/>
		<radialGradient id="SVGID_28_" cx="1171.0316" cy="557.9895" r="128.1437" gradientUnits="userSpaceOnUse">
			<stop  offset="0.0293" style="stop-color:#77C3D1"/>
			<stop  offset="1" style="stop-color:#C0E6F9;stop-opacity:0"/>
		</radialGradient>
		<polygon class="st43" points="1069,659 1083,582 1332,499 		"/>
		<polygon class="st40" points="1083,582 1207,630 1332,499 		"/>
		<radialGradient id="SVGID_29_" cx="1364.5474" cy="560.0105" r="248.608" gradientUnits="userSpaceOnUse">
			<stop  offset="0" style="stop-color:#FFECE6"/>
			<stop  offset="0.8644" style="stop-color:#DBFBFF;stop-opacity:0"/>
		</radialGradient>
		<polygon class="st44" points="1083,582 1207,630 1332,499 		"/>
	</g>
</g>
<g id="details">
	<g>
		<path class="st7" d="M957.01,506.89c5.96,0,10.79,4.92,10.79,11s-4.83,11-10.79,11c-5.96,0-10.79-4.92-10.79-11
			S951.05,506.89,957.01,506.89z M957.01,523.89c3.25,0,5.89-2.69,5.89-6s-2.64-6-5.89-6c-3.25,0-5.89,2.69-5.89,6
			S953.76,523.89,957.01,523.89z"/>
	</g>
	<g>
		<path class="st16" d="M225.95,859.72c0.66,0,1.32-0.16,1.93-0.47c1.03-0.53,1.79-1.43,2.15-2.54l4.11-12.7
			c0.74-2.29-0.48-4.77-2.73-5.53l-12.45-4.19c-1.09-0.37-2.26-0.28-3.28,0.25c-1.03,0.53-1.79,1.43-2.15,2.54l-4.11,12.7
			c-0.74,2.29,0.48,4.77,2.73,5.53l12.45,4.19C225.04,859.64,225.49,859.72,225.95,859.72z M229.29,843.04l-3.73,11.52l-11.3-3.8
			l3.73-11.52L229.29,843.04z M213.68,850.55C213.68,850.55,213.68,850.55,213.68,850.55L213.68,850.55z"/>
	</g>
	<g>
		<g>
			<polygon class="st10" points="483.16,141.31 483.16,138.39 470.01,138.39 470.01,149.51 458.69,149.51 458.68,162.91 
				461.54,162.91 461.55,152.42 472.86,152.43 472.87,141.3 			"/>
		</g>
	</g>
	<g>
		<g>
			<polygon class="st45" points="289.57,600.19 292.28,599.29 288.22,586.54 277.84,589.98 274.34,579.01 261.83,583.16 
				262.72,585.93 272.5,582.69 276,593.65 286.38,590.21 			"/>
		</g>
	</g>
	<polygon class="st46" points="152.79,200.89 155.74,215.89 140.04,210.89 	"/>
	<g>
		<line class="st47" x1="1588.59" y1="93.41" x2="1609.55" y2="101.98"/>
		<line class="st47" x1="1595.9" y1="108.65" x2="1602.24" y2="86.73"/>
	</g>
	<g>
		<path class="st16" d="M105.23,466.89c2.98,0,5.4,2.46,5.4,5.5s-2.42,5.5-5.4,5.5c-2.98,0-5.4-2.46-5.4-5.5
			S102.25,466.89,105.23,466.89z M105.23,475.39c1.63,0,2.94-1.34,2.94-3s-1.32-3-2.94-3s-2.94,1.34-2.94,3
			S103.61,475.39,105.23,475.39z"/>
	</g>
	<g>
		<path class="st48" d="M1341.27,607.89c2.98,0,5.4,2.46,5.4,5.5c0,3.04-2.42,5.5-5.4,5.5s-5.4-2.46-5.4-5.5
			C1335.87,610.36,1338.29,607.89,1341.27,607.89z M1341.27,616.39c1.63,0,2.94-1.34,2.94-3s-1.32-3-2.94-3s-2.94,1.34-2.94,3
			S1339.65,616.39,1341.27,616.39z"/>
	</g>
	<g>
		<path class="st16" d="M1337.22,893.72c0.66,0,1.32-0.16,1.93-0.47c1.03-0.53,1.79-1.43,2.15-2.54l4.11-12.7
			c0.74-2.29-0.48-4.77-2.73-5.53l-12.45-4.19c-1.09-0.37-2.26-0.28-3.28,0.25c-1.03,0.53-1.79,1.43-2.15,2.54l-4.11,12.7
			c-0.74,2.29,0.48,4.77,2.73,5.53l12.45,4.19C1336.31,893.64,1336.76,893.72,1337.22,893.72z M1340.56,877.04l-3.73,11.52
			l-11.3-3.8l3.73-11.52L1340.56,877.04z M1324.95,884.55C1324.95,884.55,1324.95,884.55,1324.95,884.55L1324.95,884.55z"/>
	</g>
	<g>
		<g>
			<polygon class="st45" points="522.01,954.22 522.62,957.01 535.73,954.28 533.39,943.6 544.66,941.25 541.84,928.38 539,928.98 
				541.2,939.05 529.93,941.4 532.27,952.08 			"/>
		</g>
	</g>
	<line class="st49" x1="994" y1="179.89" x2="1016" y2="159.89"/>
	<line class="st49" x1="1641.14" y1="911.77" x2="1660.86" y2="934.02"/>
	<circle class="st50" cx="1627.5" cy="802.5" r="11"/>
</g>
</svg>
