<?xml version="1.0" standalone="no"?>
<!DOCTYPE svg PUBLIC "-//W3C//DTD SVG 20010904//EN"
 "http://www.w3.org/TR/2001/REC-SVG-20010904/DTD/svg10.dtd">
<svg version="1.0" xmlns="http://www.w3.org/2000/svg"
 width="875.000000pt" height="333.000000pt" viewBox="0 0 875.000000 333.000000"
 preserveAspectRatio="xMidYMid meet">
<metadata>
Created by potrace 1.16, written by Peter Selinger 2001-2019
</metadata>
<g transform="translate(0.000000,333.000000) scale(0.100000,-0.100000)"
fill="#000000" stroke="none">
<path d="M0 1730 l0 -770 770 2 770 3 0 765 0 765 -770 3 -770 2 0 -770z m945
662 l26 -49 66 18 c146 41 236 34 249 -18 9 -34 -34 -92 -127 -171 -165 -142
-364 -250 -617 -333 -133 -44 -172 -53 -254 -57 -109 -5 -128 2 -128 49 0 23
15 44 66 94 37 36 71 65 75 65 5 0 9 8 9 19 0 13 -10 21 -34 25 -28 5 -36 12
-41 37 -4 17 -3 34 1 38 184 162 351 256 547 306 130 34 131 34 162 -23z m254
-441 c79 -138 84 -149 97 -240 23 -160 30 -146 -87 -182 l-100 -31 -52 -104
-52 -104 67 -67 c49 -51 73 -85 92 -132 14 -36 26 -66 26 -68 0 -2 -190 -3
-422 -3 l-423 1 78 74 c43 41 129 113 190 159 158 119 197 166 197 239 0 41
-49 93 -102 107 -26 8 -39 19 -48 41 -8 18 -26 35 -46 44 -24 10 -33 21 -36
42 -3 24 -8 29 -43 33 -65 8 -49 29 50 67 129 48 336 154 435 221 47 32 88 56
91 53 3 -3 43 -71 88 -150z"/>
<path d="M1023 2323 c-18 -2 -33 -6 -33 -8 0 -2 23 -42 51 -90 l51 -87 40 39
c79 76 83 122 10 143 -37 10 -58 10 -119 3z"/>
<path d="M281 1953 c-59 -74 -30 -113 84 -113 40 0 80 3 89 6 26 10 18 23 -16
26 -28 2 -35 9 -44 38 -9 26 -19 36 -43 42 -17 5 -31 13 -31 18 0 18 -18 10
-39 -17z"/>
<path d="M3052 2425 c-47 -21 -148 -120 -181 -179 -39 -68 -46 -107 -27 -144
19 -38 49 -56 146 -92 118 -44 153 -64 203 -120 59 -66 90 -131 95 -202 9
-116 -68 -188 -208 -196 -92 -5 -154 10 -192 48 -78 79 10 245 130 245 40 0
48 -5 82 -42 49 -56 55 -79 26 -107 -12 -11 -30 -26 -41 -31 -17 -11 -17 -12
-1 -38 l18 -26 37 18 c20 11 49 32 65 47 25 26 28 34 23 77 -5 61 -45 112
-118 150 -48 25 -62 28 -124 25 -163 -9 -329 -150 -295 -252 34 -104 220 -194
422 -204 125 -6 148 4 210 86 119 155 135 348 38 450 -32 34 -109 81 -236 145
-124 62 -174 99 -174 129 0 31 70 94 118 108 35 9 55 8 105 -5 83 -21 145 -52
165 -82 15 -24 15 -26 -6 -43 -12 -10 -40 -21 -62 -25 -22 -4 -42 -10 -44 -13
-7 -13 14 -52 28 -52 35 0 133 46 164 76 41 41 42 76 2 136 -56 85 -148 128
-269 128 -36 -1 -81 -7 -99 -15z"/>
<path d="M2098 2400 c27 -16 33 -26 29 -43 -3 -12 -44 -215 -91 -452 -82 -409
-87 -430 -113 -452 -16 -12 -31 -22 -35 -23 -5 0 -8 -4 -8 -10 0 -6 51 -10
133 -10 l132 0 -43 38 -43 37 41 125 c23 69 44 130 48 136 11 17 223 64 228
50 2 -6 24 -78 50 -161 l45 -150 -27 -20 c-79 -58 -87 -54 104 -55 94 0 172 1
172 3 0 2 -23 20 -51 42 -49 37 -51 40 -45 77 3 21 3 38 -1 38 -5 1 -19 10
-32 20 -23 19 -23 21 -6 46 17 26 17 27 -11 49 -27 22 -27 23 -12 47 16 25 16
26 -13 54 l-29 28 22 24 23 24 -35 28 c-34 28 -35 30 -22 62 12 31 11 34 -18
58 -29 23 -30 28 -20 55 12 31 10 33 -35 60 -16 9 -16 12 2 43 16 29 16 34 3
42 -52 31 -55 36 -36 65 l17 27 -38 33 -38 33 24 26 24 26 -164 0 -164 0 33
-20z m202 -301 c27 -106 48 -194 47 -195 -9 -6 -189 -35 -193 -31 -3 3 16 100
42 216 26 116 49 209 51 207 2 -2 26 -91 53 -197z"/>
<path d="M3600 2389 l35 -30 -34 -30 -35 -29 23 -24 23 -25 -31 -38 -31 -37
27 -28 26 -27 -36 -41 c-21 -22 -37 -43 -37 -46 0 -3 14 -17 31 -31 l30 -26
-32 -33 -32 -33 31 -37 31 -37 -35 -40 -34 -41 27 -28 27 -28 -29 -30 c-16
-16 -27 -31 -24 -33 2 -2 14 -11 27 -19 l23 -16 -35 -27 -36 -27 24 -30 23
-30 -41 -39 -41 -38 155 0 c171 0 164 -4 86 54 l-27 20 19 194 c11 110 25 196
31 200 15 10 343 53 349 46 3 -3 8 -106 10 -229 l5 -223 -54 -31 -54 -32 330
1 330 0 -29 22 c-73 55 -71 34 -17 210 27 87 51 160 53 162 2 1 52 -9 112 -24
l109 -26 45 -134 45 -135 -37 -34 c-21 -18 -36 -36 -33 -38 2 -3 62 -3 131 -2
l128 3 -40 30 -39 29 -89 446 c-49 245 -89 448 -89 453 0 4 14 16 30 27 l30
20 -164 0 -165 0 27 -28 27 -28 -106 -334 c-58 -184 -119 -378 -135 -430 -25
-83 -34 -100 -71 -132 -24 -21 -48 -38 -53 -38 -6 0 -27 11 -46 25 -44 29 -37
-14 -85 504 l-37 395 39 33 39 33 -130 0 -130 0 39 -34 40 -33 13 -168 c7 -93
11 -170 9 -172 -2 -2 -79 -7 -170 -11 l-166 -7 0 35 c1 19 7 100 14 180 l14
144 38 33 39 33 -135 -1 -135 0 35 -30z m1229 -308 l47 -211 -25 1 c-51 2
-176 35 -174 46 11 55 97 382 101 379 2 -2 25 -99 51 -215z"/>
<path d="M5026 2412 c5 -5 28 -23 51 -40 39 -30 41 -35 32 -64 -8 -29 -6 -34
24 -59 l32 -27 -20 -22 -20 -22 28 -20 c31 -22 34 -40 12 -58 -14 -12 -12 -17
15 -45 30 -31 30 -31 10 -50 -20 -18 -27 -45 -12 -45 4 -1 18 -9 31 -20 21
-18 22 -23 12 -52 -11 -31 -10 -35 19 -61 30 -27 31 -29 15 -53 -19 -29 -15
-37 25 -54 l30 -12 -22 -35 c-17 -29 -19 -37 -7 -44 8 -4 23 -14 34 -23 19
-14 19 -16 3 -44 l-18 -30 38 -28 c20 -15 39 -29 41 -31 3 -2 -8 -17 -24 -33
l-29 -31 123 3 122 3 102 257 c56 142 104 258 107 258 3 0 27 -102 54 -227 27
-126 53 -242 58 -260 l9 -32 114 -3 c63 -2 115 -1 115 1 0 2 -17 23 -39 46
l-39 42 30 139 c54 258 119 569 131 627 10 55 15 62 69 104 32 25 58 48 58 49
0 2 -78 4 -172 4 l-173 -1 30 -22 c16 -12 40 -31 52 -42 l22 -20 -72 -347
c-63 -301 -88 -401 -87 -347 0 8 -30 124 -66 259 -58 212 -71 249 -96 273 -15
15 -32 27 -36 27 -4 0 -61 -151 -126 -335 -66 -184 -123 -332 -127 -328 -4 5
-11 28 -16 53 -6 25 -49 206 -97 404 l-88 358 33 34 33 34 -169 0 c-93 0 -165
-4 -159 -8z"/>
<path d="M6478 2399 c21 -14 31 -27 28 -38 -3 -9 -44 -212 -91 -451 l-87 -435
-34 -25 c-18 -14 -34 -28 -34 -32 0 -5 56 -8 125 -8 69 0 125 2 125 5 0 3 -16
20 -36 38 l-37 33 45 134 44 134 90 22 c152 37 130 52 186 -131 l48 -160 -26
-20 c-78 -59 -86 -54 99 -55 92 0 167 3 167 8 -1 4 -21 22 -47 41 -41 30 -45
36 -40 67 5 28 1 37 -25 59 -29 25 -29 26 -14 50 16 24 16 26 -9 48 -25 21
-26 25 -14 51 12 27 11 30 -16 52 l-29 23 24 26 24 25 -36 30 c-36 30 -36 31
-23 63 13 31 12 33 -18 58 -29 25 -31 28 -19 54 11 23 11 30 0 36 -50 29 -52
34 -32 68 17 28 17 33 4 41 -8 5 -24 15 -34 23 -19 14 -19 16 -2 42 19 29 20
28 -42 72 l-23 16 27 28 28 29 -165 0 -164 0 33 -21z m202 -306 c25 -101 44
-186 41 -188 -15 -8 -182 -37 -188 -32 -5 6 15 107 69 341 12 50 23 85 26 77
3 -8 26 -97 52 -198z"/>
<path d="M7113 2395 c31 -22 37 -31 37 -63 0 -20 2 -66 5 -102 2 -36 7 -216
10 -400 l7 -335 -37 -42 -37 -43 159 0 158 1 -30 22 c-87 64 -83 51 -89 258
l-5 186 49 10 c49 10 50 10 56 -16 39 -175 84 -273 163 -352 81 -81 151 -112
248 -112 40 0 75 2 77 4 2 2 7 16 11 31 7 27 6 27 -26 18 -19 -6 -42 -10 -52
-10 -28 0 -105 78 -148 150 -36 61 -139 296 -139 317 0 5 24 20 53 33 143 65
218 216 154 311 -29 44 -112 93 -212 126 -72 24 -98 27 -265 30 l-185 4 38
-26z m365 -56 c90 -18 142 -80 142 -171 -1 -127 -104 -203 -265 -196 l-70 3
-7 180 c-4 99 -6 186 -3 193 5 13 106 9 203 -9z"/>
<path d="M8056 2389 l29 -30 -32 -30 c-39 -34 -40 -43 -12 -63 l22 -15 -32
-37 -31 -38 26 -27 26 -28 -38 -46 -38 -47 33 -25 32 -26 -32 -33 -32 -33 31
-37 31 -37 -35 -40 -34 -41 27 -28 27 -28 -29 -30 c-16 -16 -27 -31 -24 -33 2
-2 14 -11 27 -19 l23 -16 -36 -27 -36 -28 26 -27 27 -28 -44 -41 -43 -40 349
-1 349 0 -6 83 c-4 45 -7 103 -7 130 l0 47 -40 0 -40 0 0 -55 c0 -66 -21 -112
-56 -125 -14 -6 -49 -10 -78 -10 -60 0 -227 27 -238 38 -7 7 5 230 18 329 l5
41 97 7 c163 11 262 45 275 94 14 53 -63 119 -123 106 -26 -6 -30 -11 -30 -42
0 -32 2 -35 23 -28 52 16 73 16 87 0 22 -27 -19 -55 -79 -55 -45 0 -232 28
-240 36 -7 7 36 325 46 335 14 14 110 29 189 29 67 0 77 -3 106 -29 28 -25 33
-36 34 -82 2 -52 3 -54 31 -57 29 -3 29 -2 47 85 10 48 20 98 23 111 l5 22
-318 0 -318 0 30 -31z"/>
</g>
</svg>
