<?xml version="1.0" standalone="no"?>
<!DOCTYPE svg PUBLIC "-//W3C//DTD SVG 20010904//EN"
 "http://www.w3.org/TR/2001/REC-SVG-20010904/DTD/svg10.dtd">
<svg version="1.0" xmlns="http://www.w3.org/2000/svg"
 width="875.000000pt" height="333.000000pt" viewBox="0 0 875.000000 333.000000"
 preserveAspectRatio="xMidYMid meet">

<g transform="translate(0.000000,333.000000) scale(0.100000,-0.100000)"
fill="#000000" stroke="none">
<path d="M0 1730 l0 -780 775 0 775 0 0 774 0 774 -31 6 c-17 3 -366 6 -775 6
l-744 0 0 -780z m923 686 c8 -8 20 -28 27 -45 15 -37 15 -37 115 -11 136 35
215 23 215 -32 0 -55 -163 -202 -345 -310 -230 -137 -618 -259 -730 -230 -23
6 -31 15 -33 37 -3 23 9 40 75 107 74 75 77 80 59 94 -11 8 -27 14 -37 14 -18
0 -29 19 -29 50 0 22 163 149 262 203 80 45 199 93 291 117 88 23 111 24 130
6z m242 -413 c83 -145 114 -215 125 -283 13 -85 13 -143 -1 -157 -6 -6 -50
-22 -96 -35 l-85 -23 -55 -109 -54 -108 66 -68 c40 -42 75 -90 90 -125 14 -30
25 -58 25 -60 0 -3 -183 -5 -407 -5 l-406 0 24 26 c31 34 183 161 254 214 139
102 192 185 164 252 -13 32 -56 68 -104 87 -17 6 -35 22 -40 34 -6 12 -24 31
-42 42 -18 11 -36 32 -42 47 -7 20 -19 29 -47 34 -33 6 -35 8 -20 20 10 7 54
27 99 45 120 47 279 129 387 198 52 33 100 60 105 61 6 0 33 -39 60 -87z"/>
<path d="M993 2322 c-9 -6 -6 -17 12 -44 14 -21 25 -39 25 -42 0 -3 14 -29 32
-57 l31 -52 48 50 c63 66 71 98 35 130 -23 19 -38 23 -99 23 -40 0 -78 -4 -84
-8z"/>
<path d="M275 1949 c-18 -23 -25 -41 -23 -63 3 -28 8 -32 56 -45 39 -10 68
-12 109 -5 66 10 80 30 29 39 -26 5 -37 14 -47 36 -7 19 -27 37 -52 49 -23 11
-42 20 -43 20 -1 0 -14 -14 -29 -31z"/>
<path d="M2903 2164 c-48 -24 -168 -155 -192 -209 -12 -26 -21 -60 -21 -76 0
-46 50 -94 133 -125 111 -42 165 -72 217 -120 109 -102 135 -272 53 -346 -76
-69 -314 -62 -352 10 -19 36 -13 106 12 142 31 46 65 68 115 76 41 6 45 5 87
-40 25 -25 45 -55 45 -66 0 -10 -16 -32 -35 -47 -40 -32 -41 -35 -19 -68 15
-23 17 -24 46 -9 49 25 108 84 108 109 0 65 -49 136 -128 182 -39 23 -51 25
-125 21 -69 -3 -92 -9 -146 -38 -99 -53 -161 -125 -161 -186 0 -71 100 -157
234 -201 97 -32 248 -49 303 -34 59 16 115 77 166 180 40 81 42 89 42 175 0
78 -4 97 -25 136 -32 57 -96 105 -240 179 -145 75 -200 114 -200 142 0 30 62
86 111 100 32 10 51 10 92 -1 76 -19 134 -46 163 -75 26 -26 26 -27 7 -40 -11
-8 -41 -19 -67 -26 -44 -11 -47 -14 -41 -38 13 -51 42 -50 140 3 41 22 66 44
80 68 18 35 19 38 3 71 -24 50 -74 104 -126 134 -38 23 -58 27 -146 30 -80 3
-108 0 -133 -13z"/>
<path d="M1920 2163 c1 -5 15 -17 33 -29 18 -11 31 -25 30 -30 -15 -85 -158
-785 -169 -829 -11 -45 -23 -67 -47 -87 -18 -14 -28 -30 -24 -34 11 -11 267
-18 267 -8 0 5 -19 25 -42 44 l-41 36 42 127 c25 75 50 131 59 136 19 10 164
41 191 41 12 0 23 -23 40 -83 13 -45 34 -114 46 -153 l22 -70 -39 -28 c-44
-31 -47 -41 -15 -50 33 -9 317 -7 317 2 0 4 -22 25 -50 45 -47 35 -50 40 -50
82 0 25 -4 45 -8 45 -5 0 -16 6 -26 13 -15 11 -16 17 -5 40 11 24 10 30 -10
51 -19 20 -20 27 -10 50 11 24 10 29 -14 54 l-27 28 23 22 22 23 -33 26 c-30
23 -33 29 -27 62 5 31 2 40 -20 61 -21 19 -24 30 -19 54 5 25 2 34 -21 52 -27
21 -27 22 -10 54 14 27 15 34 4 41 -8 4 -23 14 -33 22 -19 14 -19 16 -2 42 10
15 16 28 14 29 -2 1 -20 16 -40 33 l-36 31 24 23 c13 12 24 26 24 31 0 4 -76
8 -170 8 -93 0 -170 -3 -170 -7z m239 -342 c22 -90 39 -167 36 -171 -5 -9
-164 -35 -170 -28 -4 4 8 65 68 336 6 29 14 47 18 40 4 -7 25 -87 48 -177z"/>
<path d="M3420 2163 c0 -5 16 -21 35 -36 l35 -28 -32 -27 c-18 -14 -35 -27
-37 -29 -3 -2 6 -14 19 -28 25 -26 26 -22 -25 -91 -7 -9 -2 -21 18 -42 l27
-28 -35 -34 c-19 -19 -35 -39 -35 -46 0 -7 13 -23 30 -37 l29 -25 -36 -31 -37
-31 33 -34 c36 -37 34 -52 -8 -90 -27 -25 -26 -34 6 -68 15 -15 22 -28 16 -28
-6 0 -19 -12 -28 -27 -17 -26 -17 -27 5 -45 l22 -18 -23 -20 c-13 -10 -27 -19
-31 -20 -15 0 -8 -24 15 -48 l22 -24 -42 -37 c-24 -20 -43 -40 -43 -44 0 -11
296 -5 306 6 4 4 -1 14 -12 21 -10 8 -30 23 -43 33 l-25 20 18 165 c25 241 13
220 137 239 57 9 134 20 172 24 l67 6 0 -164 c0 -90 3 -191 6 -223 l6 -59 -56
-30 c-31 -16 -56 -33 -56 -37 0 -4 151 -8 335 -8 184 0 335 4 335 9 0 4 -18
20 -40 35 -31 21 -40 33 -40 55 0 21 73 279 84 298 2 3 206 -44 211 -49 3 -2
25 -62 50 -134 l45 -129 -37 -32 c-21 -17 -34 -35 -29 -40 4 -4 66 -8 137 -8
96 0 129 3 129 13 0 6 -6 12 -12 12 -7 1 -25 11 -41 23 -30 25 -21 -15 -147
622 -28 143 -53 269 -56 280 -4 15 3 25 26 38 16 10 30 22 30 28 0 5 -70 9
-170 9 -93 0 -170 -4 -170 -8 0 -5 13 -21 29 -36 24 -23 28 -32 20 -50 -5 -11
-65 -199 -134 -416 -68 -216 -132 -405 -143 -419 -10 -14 -31 -34 -46 -45 -27
-21 -27 -21 -63 -1 -24 13 -40 30 -44 49 -5 16 -17 130 -29 255 -11 124 -29
307 -39 406 l-19 180 39 35 c21 20 39 39 39 43 0 4 -61 7 -135 7 -74 0 -135
-3 -135 -6 0 -4 18 -23 40 -43 l40 -36 12 -157 c6 -87 8 -161 5 -165 -8 -7
-292 -26 -312 -21 -7 2 -6 59 3 173 l13 170 40 35 c21 20 39 39 39 43 0 4 -63
7 -140 7 -77 0 -140 -3 -140 -7z m1264 -343 c20 -91 39 -175 42 -186 6 -24 1
-24 -101 -2 -89 19 -86 13 -53 135 15 59 36 138 45 176 10 38 20 62 24 55 4
-7 23 -87 43 -178z"/>
<path d="M4928 2163 c-27 -2 -48 -7 -48 -11 1 -4 21 -22 46 -40 41 -30 45 -36
39 -64 -6 -25 -2 -35 25 -63 l32 -33 -23 -16 -23 -16 34 -30 c32 -28 34 -31
18 -44 -24 -18 -23 -28 7 -56 22 -21 23 -25 10 -44 -22 -30 -18 -51 11 -67 22
-11 25 -18 20 -48 -4 -27 0 -40 19 -63 27 -32 30 -44 15 -53 -21 -13 -10 -43
20 -57 34 -15 35 -17 15 -44 -22 -29 -18 -47 16 -66 29 -17 30 -19 15 -40 -23
-32 -20 -43 19 -69 19 -13 35 -28 35 -33 0 -5 -12 -20 -26 -33 -14 -13 -24
-27 -21 -30 3 -3 62 -2 131 2 l125 7 51 132 c28 72 64 163 80 201 15 39 36 91
47 117 10 27 21 48 24 48 4 0 9 -17 12 -37 9 -57 86 -403 98 -440 l11 -33 119
0 c65 0 119 4 119 9 0 5 -3 11 -7 13 -5 2 -23 19 -41 39 l-33 36 25 114 c14
63 38 179 55 259 16 80 45 214 62 298 l33 153 57 42 c32 23 58 47 58 52 1 6
-67 11 -179 13 -100 2 -180 0 -180 -5 0 -5 23 -26 50 -46 28 -21 50 -44 50
-53 0 -8 -13 -77 -29 -152 -16 -75 -46 -216 -67 -312 -45 -215 -49 -225 -57
-179 -12 57 -77 299 -104 382 -34 107 -91 170 -106 120 -3 -10 -31 -88 -62
-173 -31 -85 -72 -198 -92 -250 -67 -184 -80 -214 -87 -194 -10 33 -168 687
-178 738 -9 47 -8 50 21 80 17 18 31 35 31 39 0 7 -202 7 -292 0z"/>
<path d="M6300 2160 c0 -5 3 -10 8 -10 4 0 18 -9 31 -19 l24 -18 -88 -444 -88
-444 -36 -32 c-20 -17 -32 -35 -28 -40 12 -11 257 -14 257 -2 0 5 -17 24 -37
43 l-37 34 43 130 42 130 87 21 c106 26 128 26 137 4 15 -38 85 -268 85 -279
0 -7 -17 -26 -37 -43 -31 -25 -35 -32 -23 -40 17 -12 640 -14 640 -3 0 5 -20
22 -45 40 -25 18 -50 44 -55 58 -6 15 -13 102 -17 195 l-6 168 24 5 c63 14 59
18 98 -104 45 -139 72 -187 148 -262 75 -74 135 -100 239 -106 l81 -4 12 32
c6 18 11 35 11 38 0 5 -62 -6 -85 -14 -18 -7 -96 66 -135 126 -34 53 -134 269
-145 312 -6 24 -2 29 46 53 119 61 194 182 169 274 -20 76 -165 167 -303 191
-68 11 -387 21 -387 12 0 -4 15 -17 34 -29 41 -27 44 -43 51 -383 3 -135 7
-306 10 -380 l5 -135 -35 -38 -36 -38 -44 37 c-39 31 -45 42 -45 74 0 30 -6
43 -26 57 -23 17 -24 21 -13 46 11 24 10 30 -10 51 -19 20 -20 26 -10 50 12
25 10 29 -17 51 l-29 23 24 25 23 26 -36 31 c-29 26 -34 35 -26 50 16 30 12
51 -16 72 -21 17 -24 26 -18 50 5 26 2 34 -21 53 l-28 22 19 32 c17 28 17 33
4 41 -48 28 -52 35 -39 64 13 27 12 30 -24 60 l-38 32 26 24 c14 13 25 27 25
32 0 4 -76 8 -170 8 -107 0 -170 -4 -170 -10z m986 -81 c43 -6 90 -17 104 -24
64 -34 98 -110 81 -186 -13 -59 -39 -90 -101 -121 -46 -24 -66 -28 -136 -28
l-82 0 -7 174 c-4 96 -4 179 -1 185 9 14 44 14 142 0z m-752 -244 c24 -99 42
-183 40 -186 -5 -9 -164 -33 -171 -26 -3 3 14 94 37 202 24 107 45 194 46 192
2 -2 23 -84 48 -182z"/>
<path d="M7880 2162 c0 -5 13 -21 29 -36 l30 -28 -30 -25 c-31 -27 -38 -60
-14 -69 23 -9 18 -27 -15 -59 l-30 -29 30 -31 29 -30 -41 -43 -41 -44 29 -24
c16 -13 34 -24 39 -24 6 0 -7 -16 -28 -35 l-39 -34 31 -33 c17 -18 31 -36 31
-40 0 -4 -13 -23 -30 -41 -16 -19 -30 -38 -30 -43 0 -4 12 -21 27 -36 15 -15
22 -28 16 -28 -6 0 -19 -12 -28 -27 -17 -26 -17 -27 5 -45 23 -18 23 -19 4
-33 -63 -45 -61 -40 -28 -69 l29 -26 -43 -37 c-23 -21 -42 -41 -42 -45 0 -5
160 -8 356 -8 l357 0 -7 53 c-3 28 -6 91 -6 140 l0 87 -44 0 -43 0 -7 -70
c-10 -103 -31 -123 -122 -123 -71 0 -213 20 -233 33 -16 9 8 360 24 360 2 0
49 5 104 10 112 12 212 39 242 66 51 46 -12 144 -92 144 -33 0 -41 -4 -49 -26
-7 -16 -7 -32 0 -43 8 -16 14 -17 50 -8 49 14 75 -2 48 -29 -19 -20 -101 -21
-200 -4 -118 20 -107 6 -92 117 8 54 19 128 25 165 l11 67 49 10 c28 6 86 11
130 11 76 0 82 -2 110 -29 24 -24 29 -38 29 -75 0 -40 4 -48 25 -58 18 -8 29
-8 36 -1 10 10 59 192 59 219 0 12 -58 14 -325 14 -179 0 -325 -4 -325 -8z"/>
</g>
</svg>
