<svg width="64"  height="64" xmlns="http://www.w3.org/2000/svg"><g fill="none" fill-rule="evenodd"><path d="M32 64c17.673 0 32-14.327 32-32C64 14.327 49.673 0 32 0 14.327 0 0 14.327 0 32c0 17.673 14.327 32 32 32z" fill="#EFF1F9"></path><path d="M17 20v24M17 44h4M17 20h4M17 32h4M25 35h22v-6H25zM25 23h22v-6H25zM25 47h22v-6H25z" stroke="#6A7786" stroke-width="2" stroke-linecap="round" stroke-linejoin="round"></path><path d="M29 19a1 1 0 11-.001 2.001A1 1 0 0129 19z" fill="#6A7786"></path><path d="M33 20h10" stroke="#6A7786" stroke-width="2" stroke-linecap="round" stroke-linejoin="round"></path><path d="M29 31a1 1 0 11-.001 2.001A1 1 0 0129 31z" fill="#6A7786"></path><path d="M33 32h10" stroke="#6A7786" stroke-width="2" stroke-linecap="round" stroke-linejoin="round"></path><path d="M29 43a1 1 0 11-.001 2.001A1 1 0 0129 43z" fill="#6A7786"></path><path d="M33 44h10" stroke="#6A7786" stroke-width="2" stroke-linecap="round" stroke-linejoin="round"></path></g></svg>